HIERARCHY
ROOT Hips
{
	OFFSET 0.00000 0.00000 0.00000
	CHANNELS 6 Xposition Yposition Zposition Zrotation Yrotation Xrotation 
	JOINT LHipJoint
	{
		OFFSET 0 0 0
		CHANNELS 3 Zrotation Yrotation Xrotation
		JOINT LeftUpLeg
		{
			OFFSET 1.77779 -1.88989 0.48267
			CHANNELS 3 Zrotation Yrotation Xrotation
			JOINT LeftLeg
			{
				OFFSET 2.53442 -6.96327 0.00000
				CHANNELS 3 Zrotation Yrotation Xrotation
				JOINT LeftFoot
				{
					OFFSET 2.71068 -7.44755 0.00000
					CHANNELS 3 Zrotation Yrotation Xrotation
					JOINT LeftToeBase
					{
						OFFSET 0.17992 -0.49431 2.22524
						CHANNELS 3 Zrotation Yrotation Xrotation
						End Site
						{
							OFFSET 0.00000 -0.00000 1.14687
						}
					}
				}
			}
		}
	}
	JOINT RHipJoint
	{
		OFFSET 0 0 0
		CHANNELS 3 Zrotation Yrotation Xrotation
		JOINT RightUpLeg
		{
			OFFSET -1.58469 -1.88989 0.48267
			CHANNELS 3 Zrotation Yrotation Xrotation
			JOINT RightLeg
			{
				OFFSET -2.60386 -7.15404 0.00000
				CHANNELS 3 Zrotation Yrotation Xrotation
				JOINT RightFoot
				{
					OFFSET -2.73334 -7.50979 0.00000
					CHANNELS 3 Zrotation Yrotation Xrotation
					JOINT RightToeBase
					{
						OFFSET -0.25618 -0.70384 2.21822
						CHANNELS 3 Zrotation Yrotation Xrotation
						End Site
						{
							OFFSET -0.00000 -0.00000 1.16381
						}
					}
				}
			}
		}
	}
	JOINT LowerBack
	{
		OFFSET 0 0 0
		CHANNELS 3 Zrotation Yrotation Xrotation
		JOINT Spine
		{
			OFFSET 0.03410 2.01612 -0.22230
			CHANNELS 3 Zrotation Yrotation Xrotation
			JOINT Spine1
			{
				OFFSET 0.03465 2.03012 0.00937
				CHANNELS 3 Zrotation Yrotation Xrotation
				JOINT Neck
				{
					OFFSET 0 0 0
					CHANNELS 3 Zrotation Yrotation Xrotation
					JOINT Neck1
					{
						OFFSET -0.00219 1.70459 0.20857
						CHANNELS 3 Zrotation Yrotation Xrotation
						JOINT Head
						{
							OFFSET 0.02518 1.72339 -0.22179
							CHANNELS 3 Zrotation Yrotation Xrotation
							End Site
							{
								OFFSET 0.00282 1.74122 -0.09823
							}
						}
					}
				}
				JOINT LeftShoulder
				{
					OFFSET 0 0 0
					CHANNELS 3 Zrotation Yrotation Xrotation
					JOINT LeftArm
					{
						OFFSET 3.36358 1.00547 -0.37661
						CHANNELS 3 Zrotation Yrotation Xrotation
						JOINT LeftForeArm
						{
							OFFSET 5.06507 -0.00000 0.00000
							CHANNELS 3 Zrotation Yrotation Xrotation
							JOINT LeftHand
							{
								OFFSET 3.60196 -0.00000 0.00000
								CHANNELS 3 Zrotation Yrotation Xrotation
								JOINT LeftFingerBase
								{
									OFFSET 0 0 0
									CHANNELS 3 Zrotation Yrotation Xrotation
									JOINT LeftHandIndex1
									{
										OFFSET 0.45035 -0.00000 0.00000
										CHANNELS 3 Zrotation Yrotation Xrotation
										End Site
										{
											OFFSET 0.36308 -0.00000 0.00000
										}
									}
								}
								JOINT LThumb
								{
									OFFSET 0 0 0
									CHANNELS 3 Zrotation Yrotation Xrotation
									End Site
									{
										OFFSET 0.36862 -0.00000 0.36862
									}
								}
							}
						}
					}
				}
				JOINT RightShoulder
				{
					OFFSET 0 0 0
					CHANNELS 3 Zrotation Yrotation Xrotation
					JOINT RightArm
					{
						OFFSET -3.50159 0.80383 -0.71526
						CHANNELS 3 Zrotation Yrotation Xrotation
						JOINT RightForeArm
						{
							OFFSET -5.36394 -0.00000 0.00000
							CHANNELS 3 Zrotation Yrotation Xrotation
							JOINT RightHand
							{
								OFFSET -3.58035 -0.00000 0.00000
								CHANNELS 3 Zrotation Yrotation Xrotation
								JOINT RightFingerBase
								{
									OFFSET 0 0 0
									CHANNELS 3 Zrotation Yrotation Xrotation
									JOINT RightHandIndex1
									{
										OFFSET -0.66375 -0.00000 0.00000
										CHANNELS 3 Zrotation Yrotation Xrotation
										End Site
										{
											OFFSET -0.53513 -0.00000 0.00000
										}
									}
								}
								JOINT RThumb
								{
									OFFSET 0 0 0
									CHANNELS 3 Zrotation Yrotation Xrotation
									End Site
									{
										OFFSET -0.54330 -0.00000 0.54330
									}
								}
							}
						}
					}
				}
			}
		}
	}
}
MOTION
Frames: 11
Frame Time: .0083333
0.6976 17.6628 -27.9605 0 0 0 0 0 0 -21 0 0 0 0 0 0 0 0 0 0 0 0 0 0 21 0 0 0 0 0 0 0 0 0 0 0 0 0 0 0 0 0 0 0 0 0 0 -16 0 0 21 0 0 11 0 0 0 -8 0 0 0 0 0 0 0 0 0 0 0 0 0 0 0 0 0 0 0 0 8 0 0 0 0 0 0 0 0 0 0 0 0 0 0 0 0 0
0.6976 17.6628 -27.9605 0.0660 -0.0020 -0.2317 0.0000 0.0000 0.0000 -24.5742 0.6968 10.6482 2.9724 10.6502 31.1090 -0.3074 -11.8393 -2.8001 0.5607 -4.7961 -13.3280 0.0000 0.0000 0.0000 21.5558 12.7048 -28.4601 -2.7634 -10.3019 29.9600 -0.0438 -1.7575 -5.0097 -0.0869 -1.9016 5.2339 -1.9224 -1.6172 11.2763 3.6712 -2.1651 -0.3240 5.3356 -0.9356 -6.4636 -2.8976 -1.4149 -13.2911 -2.0491 -0.8535 21.0617 -0.3074 -0.8540 8.7877 0.0000 -0.0000 0.0000 -84.3761 -4.4408 20.9478 18.2958 -28.5343 -4.6897 -0.0000 0.0000 -7.3379 32.0888 17.3507 10.5915 -7.1250 0.0000 -0.0000 4.1627 50.1769 0.5320 0.0000 -0.0000 0.0000 88.1290 -3.7753 -11.4767 -9.2654 15.5824 -1.2705 0.0000 0.0000 14.6173 -21.1949 20.4331 -7.7097 7.1250 -0.0000 -0.0000 4.6605 -8.2578 3.9563
0.6802 17.6882 -27.7456 0.1727 0.0534 -0.3177 0.0000 0.0000 0.0000 -24.4220 0.6238 9.9215 3.3320 11.2140 33.0051 -0.4605 -12.4465 0.7709 0.5104 -4.5793 -12.7125 0.0000 0.0000 0.0000 21.6633 12.5463 -27.9824 -2.8843 -10.5053 30.6292 -0.0606 -1.5337 -5.4840 -0.1414 -2.4231 6.6765 -1.1448 -0.9776 10.9586 2.7803 -1.2845 0.7672 3.7595 -0.5761 -5.2567 -1.3739 -2.1445 -17.5262 -1.8831 -2.1415 22.1738 -0.7228 -1.3321 9.9447 -0.0000 -0.0000 0.0000 -83.1418 -6.9670 22.7780 17.8456 -27.9590 -4.4766 -0.0000 0.0000 -7.3635 33.1299 18.6704 11.8008 -7.1250 0.0000 -0.0000 5.1109 51.8834 0.8681 -0.0000 -0.0000 0.0000 89.9420 -1.5683 -14.9648 -9.2472 15.5535 -1.2656 0.0000 0.0000 15.6039 -20.8513 20.7694 -7.6922 7.1250 -0.0000 -0.0000 4.9070 -7.9575 4.1962
0.6577 17.7141 -27.5424 0.1609 -0.0907 -0.3522 0.0000 0.0000 0.0000 -24.1138 0.5451 8.9566 3.7132 11.7687 34.9186 -0.4763 -12.1268 4.0978 0.6611 -5.2002 -14.4806 0.0000 0.0000 0.0000 21.9092 12.6469 -27.4557 -2.9740 -10.6528 31.1177 -0.0584 -2.1501 -5.8827 -0.2088 -2.9424 8.1183 -1.3333 -1.0141 10.8617 2.8697 -1.3490 0.5838 3.9722 -0.5983 -5.3845 -1.5251 -2.1086 -16.7483 -1.7522 -2.1034 21.9254 -0.6332 -1.3097 9.7146 0.0000 0.0000 0.0000 -83.5305 -6.1447 22.2955 17.7133 -27.7885 -4.4148 -0.0000 0.0000 -7.4892 33.1561 18.8808 11.9368 -7.1250 0.0000 -0.0000 5.1180 52.1295 0.9003 0.0000 0.0000 0.0000 89.7395 -1.9316 -14.9745 -9.2008 15.4798 -1.2532 0.0000 0.0000 15.2414 -20.7769 20.7253 -7.6471 7.1250 -0.0000 -0.0000 4.9510 -8.0147 4.2285
0.6385 17.7222 -27.3517 0.1031 -0.1431 -0.5532 0.0000 0.0000 0.0000 -23.7997 0.2482 8.1822 4.1441 12.3497 36.9804 -0.4364 -12.5796 9.8210 0.3035 -3.5422 -9.7921 0.0000 0.0000 0.0000 22.2621 12.5182 -26.7614 -3.0376 -10.7557 31.4603 -0.0410 -2.9914 -6.0593 -0.2653 -3.3133 9.1522 -1.2933 -0.9330 11.1136 2.8311 -1.2396 0.6961 3.8974 -0.5463 -5.4173 -1.4176 -2.1712 -17.3186 -1.6377 -2.2343 22.1016 -0.6384 -1.3492 9.8830 0.0000 0.0000 0.0000 -83.7145 -6.1379 22.1618 17.4395 -27.4335 -4.2879 -0.0000 0.0000 -7.4232 32.6533 18.3018 11.3781 -7.1250 0.0000 -0.0000 4.6495 51.3687 0.7307 0.0000 0.0000 0.0000 89.8591 -1.7957 -14.3863 -9.3332 15.6898 -1.2887 0.0000 0.0000 14.0219 -21.3645 20.0088 -7.6236 7.1250 -0.0000 -0.0000 4.5181 -8.6776 3.7969
0.6162 17.7896 -27.1539 -0.0011 -0.1269 -0.7527 0.0000 0.0000 0.0000 -23.4308 0.0981 6.5742 4.6648 12.9961 39.3538 -0.3695 -13.6288 14.0256 0.3592 -3.8505 -10.6564 0.0000 0.0000 0.0000 22.6611 12.3904 -25.7362 -3.0530 -10.7804 31.5428 -0.0440 -3.0588 -6.2354 -0.4163 -4.1415 11.4751 -1.9014 -1.4388 11.4942 3.4319 -1.9425 -0.1828 5.0364 -0.8327 -6.4680 -2.4748 -1.6293 -14.0121 -1.5368 -1.3359 21.3028 -0.2681 -0.9969 9.0022 0.0000 -0.0000 0.0000 -84.9607 -3.4677 20.3968 17.4231 -27.4121 -4.2803 -0.0000 0.0000 -7.1986 32.7225 19.1142 11.8819 -7.1250 0.0000 -0.0000 4.6367 52.3097 0.8358 0.0000 -0.0000 0.0000 88.6149 -3.7706 -11.8405 -9.4237 15.8330 -1.3133 0.0000 0.0000 13.1121 -20.9571 20.2670 -7.5574 7.1250 -0.0000 -0.0000 4.7999 -8.4670 4.0555
0.5943 17.8280 -26.9593 -0.4038 -0.2474 -0.7922 0.0000 0.0000 0.0000 -22.7438 -0.2158 4.9824 5.2367 13.6455 41.8356 -0.1007 -13.1046 17.3394 0.0001 -0.0583 -0.1603 0.0000 0.0000 0.0000 23.3372 12.6605 -24.7476 -3.0506 -10.7765 31.5298 -0.0608 -2.5517 -6.3140 -0.5972 -4.9474 13.7585 -1.1038 -1.1881 11.2529 3.0968 -1.5313 0.2469 4.1338 -0.6770 -5.9455 -1.8961 -1.8992 -15.2259 -1.1606 -1.9023 21.3432 -0.3170 -1.1750 9.2380 -0.0000 0.0000 0.0000 -84.3680 -4.2941 21.1691 16.9707 -26.8191 -4.0741 -0.0000 0.0000 -7.3840 32.8907 19.4740 12.1665 -7.1250 0.0000 -0.0000 4.7745 52.7540 0.9127 -0.0000 0.0000 0.0000 89.4462 -2.8918 -13.4642 -9.3506 15.7174 -1.2934 0.0000 0.0000 14.3084 -20.4258 21.2768 -7.6962 7.1250 -0.0000 -0.0000 5.2181 -7.4921 4.5124
0.5740 17.8597 -26.7700 -0.8851 -0.1768 -0.7279 0.0000 0.0000 0.0000 -21.9624 -0.8586 3.2671 5.8731 14.3043 44.4705 -0.0908 -14.8904 20.1461 0.0050 0.4580 1.2586 0.0000 0.0000 0.0000 24.1261 12.7194 -23.9034 -2.9906 -10.6798 31.2074 -0.0657 -2.5011 -6.4276 -0.5820 -4.8847 13.5801 -0.4780 -1.1415 11.0752 3.0418 -1.3972 0.4200 3.6874 -0.6349 -5.6893 -1.7140 -2.0246 -15.8298 -0.8610 -2.1791 21.3547 -0.2859 -1.2555 9.3552 -0.0000 0.0000 0.0000 -84.2123 -4.4473 21.6350 16.7164 -26.4823 -3.9600 -0.0000 0.0000 -7.7404 32.1590 18.4447 11.2507 -7.1250 0.0000 -0.0000 4.1215 51.4369 0.6544 -0.0000 0.0000 0.0000 89.6983 -2.3465 -14.1295 -9.2453 15.5504 -1.2651 0.0000 0.0000 15.3197 -21.0258 22.0161 -8.1994 7.1250 -0.0000 -0.0000 4.9002 -6.6294 4.3180
0.5563 17.9009 -26.5819 -1.3026 0.0034 -0.6213 0.0000 0.0000 0.0000 -21.2287 -1.6012 1.6205 6.5142 14.9088 47.0120 0.4440 -14.3363 24.6489 0.0880 1.9131 5.2656 0.0000 0.0000 0.0000 24.8411 12.5646 -23.2667 -2.9356 -10.5901 30.9095 -0.0758 -2.7511 -6.9607 -0.3981 -4.0511 11.2205 -0.0568 -1.0637 11.1968 3.0918 -1.2348 0.4155 3.4801 -0.5642 -5.7810 -1.3830 -2.2112 -16.6064 -0.9613 -2.4855 21.5679 -0.4265 -1.3821 9.5685 0.0000 -0.0000 0.0000 -84.2418 -4.4348 22.2916 16.5274 -26.2305 -3.8761 -0.0000 0.0000 -8.0549 31.8792 18.0871 10.9287 -7.1250 0.0000 -0.0000 3.8723 50.9771 0.5710 0.0000 -0.0000 0.0000 89.8524 -2.1278 -13.5471 -9.3822 15.7674 -1.3020 0.0000 0.0000 14.7549 -22.2755 21.6503 -8.5940 7.1250 -0.0000 -0.0000 4.0788 -6.8117 3.5756
0.5426 17.9530 -26.3952 -1.6898 -0.3375 -0.6964 0.0000 0.0000 0.0000 -20.6392 -1.7890 -0.4146 7.1526 15.4590 49.4490 1.1769 -12.6501 28.5858 0.4317 4.2162 11.6858 0.0000 0.0000 0.0000 25.5732 12.5290 -22.2890 -2.8774 -10.4939 30.5915 -0.0919 -2.6297 -7.3224 -0.3569 -3.8383 10.6222 -0.2674 -1.3002 11.4756 3.6792 -1.5190 -0.2239 4.3002 -0.6716 -6.5786 -2.1749 -1.9093 -14.2313 -0.9599 -1.9267 20.9596 -0.1912 -1.1842 8.9273 0.0000 -0.0000 0.0000 -85.2954 -2.4544 21.4159 16.5350 -26.2407 -3.8795 -0.0000 0.0000 -7.9859 31.9820 19.0084 11.4961 -7.1250 0.0000 -0.0000 3.8712 52.0431 0.6721 0.0000 -0.0000 0.0000 88.8016 -3.5077 -10.0749 -9.6397 16.1740 -1.3729 0.0000 0.0000 12.5355 -22.8950 20.5908 -8.4480 7.1250 -0.0000 -0.0000 3.5872 -7.8290 3.0713
0.5304 17.9819 -26.2133 -1.8993 -0.8235 -0.7427 0.0000 0.0000 0.0000 -20.2239 -1.7816 -2.1973 7.7932 15.9650 51.8143 1.5008 -10.7326 29.2197 1.0757 6.5926 18.5140 0.0000 0.0000 0.0000 26.0703 12.6717 -21.2895 -2.8349 -10.4229 30.3574 -0.0973 -2.4392 -7.3189 -0.4852 -4.4665 12.3929 0.0224 -1.1255 11.5315 3.6078 -1.2536 -0.1269 4.0137 -0.5538 -6.5344 -2.0911 -1.9182 -14.5603 -0.7437 -1.9993 20.9481 -0.1437 -1.1880 8.9852 0.0000 -0.0000 0.0000 -85.2200 -2.2643 21.7402 16.4446 -26.1198 -3.8396 -0.0000 0.0000 -8.0056 31.1627 20.5113 11.9637 -7.1250 0.0000 -0.0000 2.7899 53.5732 0.5885 0.0000 -0.0000 0.0000 88.9334 -3.2211 -9.1779 -9.8059 16.4354 -1.4195 0.0000 0.0000 11.8841 -22.8207 19.9601 -8.1742 7.1250 -0.0000 -0.0000 3.5780 -8.5083 3.0153
